<svg xmlns="http://www.w3.org/2000/svg" height="512pt" version="1.1" viewBox="0 -40 512 511" width="512pt">
<g id="surface1">
<path d="M 328.945312 306.503906 L 313.109375 356.554688 L 363.160156 340.71875 L 441.742188 261.933594 L 407.730469 227.921875 Z M 389.660156 163.855469 C 453.011719 172.28125 501.847656 226.5 501.847656 292.1875 C 501.847656 363.660156 443.875 421.632812 372.402344 421.632812 C 324.175781 421.632812 282.144531 395.234375 259.808594 356.148438 C 249.046875 337.265625 242.851562 315.433594 242.851562 292.085938 C 242.851562 220.609375 300.824219 162.636719 372.300781 162.636719 C 378.1875 162.738281 383.972656 163.144531 389.660156 163.855469 Z M 389.660156 163.855469 " style=" stroke:none;fill-rule:nonzero;fill:rgb(99.607843%,85.882353%,25.490196%);fill-opacity:1;" />
<path d="M 407.730469 227.921875 L 441.742188 261.929688 L 363.160156 340.714844 L 328.945312 306.503906 Z M 407.730469 227.921875 " style=" stroke:none;fill-rule:nonzero;fill:rgb(99.607843%,85.882353%,25.490196%);fill-opacity:1;" />
<path d="M 389.761719 130.046875 L 389.761719 163.144531 L 389.660156 163.753906 C 383.972656 162.941406 378.289062 162.640625 372.402344 162.640625 C 300.925781 162.640625 242.953125 220.609375 242.953125 292.085938 C 242.953125 315.4375 249.148438 337.265625 259.910156 356.148438 L 259.402344 356.453125 L 53.097656 356.453125 C 29.238281 356.453125 9.847656 337.0625 9.847656 313.203125 L 9.847656 130.046875 Z M 220.820312 198.679688 C 220.820312 187.003906 211.378906 177.5625 199.703125 177.5625 C 188.027344 177.5625 178.585938 187.003906 178.585938 198.679688 C 178.585938 210.355469 188.027344 219.796875 199.703125 219.796875 C 211.378906 219.796875 220.820312 210.355469 220.820312 198.679688 Z M 220.820312 278.683594 C 220.820312 267.007812 211.378906 257.566406 199.703125 257.566406 C 188.027344 257.566406 178.585938 267.007812 178.585938 278.683594 C 178.585938 290.359375 188.027344 299.800781 199.703125 299.800781 C 211.378906 299.800781 220.820312 290.257812 220.820312 278.683594 Z M 123.558594 198.679688 C 123.558594 187.003906 114.117188 177.5625 102.441406 177.5625 C 90.765625 177.5625 81.324219 187.003906 81.324219 198.679688 C 81.324219 210.355469 90.765625 219.796875 102.441406 219.796875 C 114.117188 219.796875 123.558594 210.355469 123.558594 198.679688 Z M 123.558594 278.683594 C 123.558594 267.007812 114.117188 257.566406 102.441406 257.566406 C 90.765625 257.566406 81.324219 267.007812 81.324219 278.683594 C 81.324219 290.359375 90.765625 299.800781 102.441406 299.800781 C 114.117188 299.800781 123.558594 290.257812 123.558594 278.683594 Z M 123.558594 278.683594 " style=" stroke:none;fill-rule:nonzero;fill:rgb(0%,93.72549%,81.960784%);fill-opacity:1;" />
<path d="M 95.941406 42.429688 L 346.511719 42.429688 C 370.371094 42.429688 389.761719 61.820312 389.761719 85.679688 L 389.761719 130.046875 L 9.847656 130.046875 L 9.847656 85.679688 C 9.847656 61.820312 29.238281 42.429688 53.097656 42.429688 Z M 95.941406 42.429688 " style=" stroke:none;fill-rule:nonzero;fill:rgb(0%,67.45098%,91.764706%);fill-opacity:1;" />
<path d="M 363.160156 340.714844 L 313.210938 356.453125 L 328.945312 306.503906 Z M 363.160156 340.714844 " style=" stroke:none;fill-rule:nonzero;fill:rgb(99.607843%,85.882353%,25.490196%);fill-opacity:1;" />
<path d="M 220.921875 198.679688 C 220.921875 210.34375 211.46875 219.796875 199.804688 219.796875 C 188.140625 219.796875 178.6875 210.34375 178.6875 198.679688 C 178.6875 187.019531 188.140625 177.5625 199.804688 177.5625 C 211.46875 177.5625 220.921875 187.019531 220.921875 198.679688 Z M 220.921875 198.679688 " style=" stroke:none;fill-rule:nonzero;fill:rgb(99.607843%,85.882353%,25.490196%);fill-opacity:1;" />
<path d="M 220.921875 278.683594 C 220.921875 290.347656 211.46875 299.800781 199.804688 299.800781 C 188.140625 299.800781 178.6875 290.347656 178.6875 278.683594 C 178.6875 267.019531 188.140625 257.566406 199.804688 257.566406 C 211.46875 257.566406 220.921875 267.019531 220.921875 278.683594 Z M 220.921875 278.683594 " style=" stroke:none;fill-rule:nonzero;fill:rgb(99.607843%,85.882353%,25.490196%);fill-opacity:1;" />
<path d="M 123.660156 198.679688 C 123.660156 210.34375 114.203125 219.796875 102.542969 219.796875 C 90.878906 219.796875 81.425781 210.34375 81.425781 198.679688 C 81.425781 187.019531 90.878906 177.5625 102.542969 177.5625 C 114.203125 177.5625 123.660156 187.019531 123.660156 198.679688 Z M 123.660156 198.679688 " style=" stroke:none;fill-rule:nonzero;fill:rgb(99.607843%,85.882353%,25.490196%);fill-opacity:1;" />
<path d="M 123.660156 278.683594 C 123.660156 290.347656 114.203125 299.800781 102.542969 299.800781 C 90.878906 299.800781 81.425781 290.347656 81.425781 278.683594 C 81.425781 267.019531 90.878906 257.566406 102.542969 257.566406 C 114.203125 257.566406 123.660156 267.019531 123.660156 278.683594 Z M 123.660156 278.683594 " style=" stroke:none;fill-rule:nonzero;fill:rgb(99.607843%,85.882353%,25.490196%);fill-opacity:1;" />
<path d="M 199.804688 167.410156 C 182.546875 167.410156 168.535156 181.421875 168.535156 198.679688 C 168.535156 215.9375 182.546875 229.949219 199.804688 229.949219 C 217.0625 229.949219 231.074219 215.9375 231.074219 198.679688 C 230.972656 181.421875 216.964844 167.410156 199.804688 167.410156 Z M 199.804688 209.644531 C 193.816406 209.644531 188.839844 204.773438 188.839844 198.679688 C 188.839844 192.589844 193.714844 187.714844 199.804688 187.714844 C 205.792969 187.714844 210.769531 192.589844 210.769531 198.679688 C 210.769531 204.773438 205.792969 209.644531 199.804688 209.644531 Z M 199.804688 209.644531 " style=" stroke:none;fill-rule:nonzero;fill:rgb(3.137255%,21.960784%,38.823529%);fill-opacity:1;" />
<path d="M 102.542969 167.410156 C 85.28125 167.410156 71.273438 181.421875 71.273438 198.679688 C 71.273438 215.9375 85.28125 229.949219 102.542969 229.949219 C 119.800781 229.949219 133.8125 215.9375 133.8125 198.679688 C 133.710938 181.421875 119.699219 167.410156 102.542969 167.410156 Z M 102.542969 209.644531 C 96.550781 209.644531 91.578125 204.773438 91.578125 198.679688 C 91.578125 192.589844 96.449219 187.714844 102.542969 187.714844 C 108.53125 187.714844 113.507812 192.589844 113.507812 198.679688 C 113.507812 204.773438 108.53125 209.644531 102.542969 209.644531 Z M 102.542969 209.644531 " style=" stroke:none;fill-rule:nonzero;fill:rgb(3.137255%,21.960784%,38.823529%);fill-opacity:1;" />
<path d="M 199.804688 247.414062 C 182.546875 247.414062 168.535156 261.425781 168.535156 278.683594 C 168.535156 295.941406 182.546875 309.953125 199.804688 309.953125 C 217.0625 309.953125 231.074219 295.941406 231.074219 278.683594 C 230.972656 261.425781 216.964844 247.414062 199.804688 247.414062 Z M 199.804688 289.648438 C 193.816406 289.648438 188.839844 284.773438 188.839844 278.683594 C 188.839844 272.59375 193.714844 267.71875 199.804688 267.71875 C 205.792969 267.71875 210.769531 272.59375 210.769531 278.683594 C 210.769531 284.773438 205.792969 289.648438 199.804688 289.648438 Z M 199.804688 289.648438 " style=" stroke:none;fill-rule:nonzero;fill:rgb(3.137255%,21.960784%,38.823529%);fill-opacity:1;" />
<path d="M 102.542969 247.414062 C 85.28125 247.414062 71.273438 261.425781 71.273438 278.683594 C 71.273438 295.941406 85.28125 309.953125 102.542969 309.953125 C 119.800781 309.953125 133.8125 295.941406 133.8125 278.683594 C 133.710938 261.425781 119.699219 247.414062 102.542969 247.414062 Z M 102.542969 289.648438 C 96.550781 289.648438 91.578125 284.773438 91.578125 278.683594 C 91.578125 272.59375 96.449219 267.71875 102.542969 267.71875 C 108.53125 267.71875 113.507812 272.59375 113.507812 278.683594 C 113.507812 284.773438 108.53125 289.648438 102.542969 289.648438 Z M 102.542969 289.648438 " style=" stroke:none;fill-rule:nonzero;fill:rgb(3.137255%,21.960784%,38.823529%);fill-opacity:1;" />
<path d="M 400.015625 155.328125 L 400.015625 85.78125 C 400.015625 56.339844 375.953125 32.480469 346.511719 32.480469 L 317.777344 32.480469 L 317.777344 10.652344 C 317.777344 5.070312 313.210938 0.5 307.625 0.5 C 302.042969 0.5 297.472656 5.070312 297.472656 10.652344 L 297.472656 32.378906 L 105.585938 32.378906 L 105.585938 10.652344 C 105.585938 5.070312 101.019531 0.5 95.433594 0.5 C 89.851562 0.5 85.28125 5.070312 85.28125 10.652344 L 85.28125 32.378906 L 53.097656 32.378906 C 23.65625 32.378906 0 56.238281 0 85.679688 L 0 313.304688 C 0 342.746094 23.65625 366.402344 53.097656 366.402344 L 254.324219 366.402344 C 279.808594 407.011719 324.480469 431.683594 372.402344 431.683594 C 449.359375 431.683594 512 369.144531 512 292.085938 C 512 258.074219 499.714844 225.28125 477.175781 199.796875 C 456.871094 176.851562 429.457031 161.21875 400.015625 155.328125 Z M 53.097656 52.683594 L 85.28125 52.683594 L 85.28125 74.308594 C 85.28125 79.894531 89.851562 84.460938 95.433594 84.460938 C 101.019531 84.460938 105.589844 79.894531 105.589844 74.308594 L 105.589844 52.683594 L 297.472656 52.683594 L 297.472656 74.308594 C 297.472656 79.894531 302.042969 84.460938 307.628906 84.460938 C 313.210938 84.460938 317.78125 79.894531 317.78125 74.308594 L 317.78125 52.683594 L 346.511719 52.683594 C 364.785156 52.683594 379.710938 67.40625 379.710938 85.679688 L 379.710938 119.691406 L 20.304688 119.691406 L 20.304688 85.679688 C 20.304688 67.40625 34.824219 52.683594 53.097656 52.683594 Z M 20.304688 313.304688 L 20.304688 139.996094 L 379.710938 139.996094 L 379.710938 152.789062 C 377.679688 152.6875 374.835938 152.585938 372.402344 152.585938 C 295.441406 152.585938 232.699219 215.128906 232.699219 292.085938 C 232.699219 310.765625 236.457031 328.835938 243.5625 346.097656 L 53.097656 346.097656 C 34.824219 346.097656 20.304688 331.476562 20.304688 313.304688 Z M 372.402344 411.480469 C 329.65625 411.480469 289.859375 388.332031 268.640625 351.171875 C 258.488281 333.304688 253.003906 312.898438 253.003906 292.1875 C 253.003906 226.398438 306.507812 172.890625 372.296875 172.890625 C 377.679688 172.890625 383.058594 173.296875 388.238281 173.90625 C 447.226562 181.726562 491.59375 232.589844 491.59375 292.1875 C 491.695312 357.976562 438.191406 411.480469 372.402344 411.480469 Z M 372.402344 411.480469 " style=" stroke:none;fill-rule:nonzero;fill:rgb(3.137255%,21.960784%,38.823529%);fill-opacity:1;" />
<path d="M 414.941406 220.710938 C 410.980469 216.75 404.585938 216.75 400.625 220.710938 L 321.839844 299.292969 C 320.722656 300.410156 319.808594 301.832031 319.300781 303.457031 L 303.464844 353.507812 C 302.347656 357.164062 303.261719 361.023438 306.003906 363.761719 C 307.929688 365.691406 310.570312 366.707031 313.210938 366.707031 C 314.226562 366.707031 315.242188 366.503906 316.257812 366.199219 L 366.003906 350.460938 C 367.628906 349.953125 369.152344 349.144531 370.371094 347.925781 L 448.953125 269.140625 C 452.910156 265.179688 452.910156 258.785156 448.953125 254.824219 Z M 333.617188 325.488281 L 344.175781 336.046875 L 328.742188 340.917969 Z M 363.160156 326.300781 L 343.363281 306.503906 L 407.832031 242.234375 L 427.53125 261.933594 Z M 363.160156 326.300781 " style=" stroke:none;fill-rule:nonzero;fill:rgb(3.137255%,21.960784%,38.823529%);fill-opacity:1;" />
</g>
</svg>