<?xml version="1.0" encoding="iso-8859-1"?>
<!-- Generator: Adobe Illustrator 19.0.0, SVG Export Plug-In . SVG Version: 6.00 Build 0)  -->
<svg version="1.1" id="Layer_1" xmlns="http://www.w3.org/2000/svg" xmlns:xlink="http://www.w3.org/1999/xlink" x="0px" y="0px"
	 viewBox="0 0 495 495" style="enable-background:new 0 0 495 495;" xml:space="preserve">
<g>
	<path style="fill:#9BFBFF;" d="M40,247.5C40,361.92,133.08,455,247.5,455V40C133.08,40,40,133.08,40,247.5z M239.731,279.28h-69.72
		c0-4.386,0.326-8.307,0.98-11.76c0.652-3.452,1.772-6.603,3.36-9.45c1.586-2.847,3.732-5.482,6.44-7.91
		c2.706-2.426,6.112-4.806,10.22-7.14c4.386-2.427,8.05-4.433,10.99-6.021c2.94-1.586,5.271-2.986,7-4.2
		c1.726-1.212,2.962-2.31,3.71-3.29c0.746-0.979,1.12-2.122,1.12-3.43c0-2.612-0.934-4.712-2.8-6.3
		c-1.868-1.586-4.528-2.38-7.98-2.38c-3.92,0-7.328,0.958-10.22,2.87c-2.894,1.914-5.694,4.409-8.4,7.489l-14.28-16.52
		c1.492-1.681,3.5-3.313,6.02-4.9c2.52-1.586,5.366-3.01,8.54-4.27c3.172-1.261,6.65-2.262,10.43-3.011
		c3.78-0.745,7.722-1.119,11.83-1.119c10.08,0,17.802,2.193,23.17,6.58c5.366,4.388,8.05,10.313,8.05,17.779
		c0,3.08-0.49,5.834-1.47,8.26c-0.98,2.429-2.264,4.599-3.85,6.511c-1.588,1.914-3.36,3.594-5.32,5.04
		c-1.96,1.448-3.968,2.777-6.02,3.989c-1.4,0.841-3.08,1.82-5.04,2.94s-3.898,2.264-5.81,3.43c-1.914,1.168-3.688,2.334-5.32,3.5
		c-1.634,1.168-2.87,2.219-3.71,3.15h38.08V279.28z"/>
	<polygon style="fill:#46F8FF;" points="292.929,257.72 292.929,232.94 273.889,257.72 	"/>
	<path style="fill:#46F8FF;" d="M354.538,69.799v74.818h-40v-93.5C293.499,43.915,270.949,40,247.5,40v415
		C361.92,455,455,361.92,455,247.5C455,172.213,414.698,106.171,354.538,69.799z M324.99,277.88h-12.32v19.18h-22.4v-19.18h-38.5
		v-20.02l45.641-58.521h15.26v58.38h12.32V277.88z"/>
	<path style="fill:#005ECE;" d="M452.22,108.38C480.21,149.49,495,197.59,495,247.5c0,66.11-25.74,128.26-72.49,175.01
		S313.61,495,247.5,495v-40C361.92,455,455,361.92,455,247.5c0-73.78-38.58-140.69-100.46-177.83v74.95h-40V17.37h126.55v40h-35.1
		C423.57,72.04,439.13,89.16,452.22,108.38z"/>
	<path style="fill:#2488FF;" d="M266.01,0.69l-2.95,39.89C257.87,40.19,252.63,40,247.5,40C133.08,40,40,133.08,40,247.5
		S133.08,455,247.5,455v40c-66.11,0-128.26-25.74-175.01-72.49S0,313.61,0,247.5S25.74,119.24,72.49,72.49S181.39,0,247.5,0
		C253.62,0,259.84,0.23,266.01,0.69z"/>
	<path style="fill:#003F8A;" d="M170.01,279.28c0-4.386,0.326-8.307,0.98-11.76c0.652-3.452,1.772-6.603,3.36-9.45
		c1.586-2.847,3.732-5.482,6.44-7.91c2.706-2.426,6.112-4.806,10.22-7.14c4.386-2.427,8.05-4.433,10.99-6.021
		c2.94-1.586,5.271-2.986,7-4.2c1.726-1.212,2.962-2.31,3.71-3.29c0.746-0.979,1.12-2.122,1.12-3.43c0-2.612-0.934-4.712-2.8-6.3
		c-1.868-1.586-4.528-2.38-7.98-2.38c-3.92,0-7.328,0.958-10.22,2.87c-2.894,1.914-5.694,4.409-8.4,7.489l-14.28-16.52
		c1.492-1.681,3.5-3.313,6.02-4.9c2.52-1.586,5.366-3.01,8.54-4.27c3.172-1.261,6.65-2.262,10.43-3.011
		c3.78-0.745,7.722-1.119,11.83-1.119c10.08,0,17.802,2.193,23.17,6.58c5.366,4.388,8.05,10.313,8.05,17.779
		c0,3.08-0.49,5.834-1.47,8.26c-0.98,2.429-2.264,4.599-3.85,6.511c-1.588,1.914-3.36,3.594-5.32,5.04
		c-1.96,1.448-3.968,2.777-6.02,3.989c-1.4,0.841-3.08,1.82-5.04,2.94s-3.898,2.264-5.81,3.43c-1.914,1.168-3.688,2.334-5.32,3.5
		c-1.634,1.168-2.87,2.219-3.71,3.15h38.08v20.16H170.01z"/>
	<path style="fill:#003F8A;" d="M290.269,297.06v-19.18h-38.5v-20.02l45.641-58.521h15.26v58.38h12.32v20.16h-12.32v19.18H290.269z
		 M273.889,257.72h19.04V232.94L273.889,257.72z"/>
</g>
<g>
</g>
<g>
</g>
<g>
</g>
<g>
</g>
<g>
</g>
<g>
</g>
<g>
</g>
<g>
</g>
<g>
</g>
<g>
</g>
<g>
</g>
<g>
</g>
<g>
</g>
<g>
</g>
<g>
</g>
</svg>
