<svg height="512" viewBox="0 0 512 512" width="512" xmlns="http://www.w3.org/2000/svg"><g id="Filled_outline" data-name="Filled outline"><path d="m288 264v192a32 32 0 0 1 -32 32h-144a32 32 0 0 1 -32-32v-192c0-.31 0-.63.01-.94a194.665 194.665 0 0 1 15.75-75.83l16.48-38.46c1.96-4.56 3.74-9.2 5.34-13.88a194.711 194.711 0 0 0 9.76-46.89q.66-7.965.66-16h112q0 8.025.66 16c.15 1.92.34 3.83.55 5.74a195.69 195.69 0 0 0 9.55 42.11q2.265 6.54 5 12.92l16.48 38.46a194.847 194.847 0 0 1 15.76 76.77z" fill="#a0dde5"/><path d="m240.66 88h-113.32q.66-7.965.66-16h112q0 8.025.66 16z" fill="#8fd0d9"/><path d="m288 264v192a32 32 0 0 1 -32 32h-144a32 32 0 0 1 -32-32v-192c0-.31 0-.63.01-.94 61.44-37.16 117.25-91.86 161.2-169.32a195.69 195.69 0 0 0 9.55 42.11q2.265 6.54 5 12.92l16.48 38.46a194.847 194.847 0 0 1 15.76 76.77z" fill="#92d8e0"/><path d="m256 40v32h-144v-32a16 16 0 0 1 16-16h112a16 16 0 0 1 16 16z" fill="#e0e0de"/><path d="m288 264v192a32 32 0 0 1 -32 32h-144a32 32 0 0 1 -32-32v-192c0-.31 0-.63.01-.94a194.665 194.665 0 0 1 15.75-75.83l16.48-38.46c1.96-4.56 3.74-9.2 5.34-13.88l1.58-.32a158.675 158.675 0 0 1 65.54.7 158.488 158.488 0 0 0 27.78 3.64 158.8 158.8 0 0 0 38.28-3.06q2.265 6.54 5 12.92l16.48 38.46a194.847 194.847 0 0 1 15.76 76.77z" fill="#e0e0de"/><path d="m288 264v192a32 32 0 0 1 -32 32h-144a32 32 0 0 1 -32-32v-192c0-.31 0-.63.01-.94 48.74-29.48 93.93-69.99 132.47-124.15a158.8 158.8 0 0 0 38.28-3.06q2.265 6.54 5 12.92l16.48 38.46a194.847 194.847 0 0 1 15.76 76.77z" fill="#d6d6d4"/><path d="m256 40v32h-32v-32a16 16 0 0 0 -16-16h32a16 16 0 0 1 16 16z" fill="#dbdbd9"/><path d="m432 240-.17 1.88-6.13 69.55-17.7 176.57h-144l-17.05-169.28-6.78-76.84-.17-1.88z" fill="#a0dde5"/><ellipse cx="336" cy="240" fill="#8fd0d9" rx="96" ry="32"/><path d="m425.7 311.43-17.7 176.57h-144l-8.14-80.85-8.91-88.43 10.13-3.04a135.27 135.27 0 0 1 77.84 0 135.513 135.513 0 0 0 81.76-1.24z" fill="#e0e0de"/><path d="m425.7 311.43-17.7 176.57h-144l-8.14-80.85a435.6 435.6 0 0 0 102.92-86.6 135.5 135.5 0 0 0 57.9-6.11z" fill="#dbdbd9"/><path d="m88 456v-192a185.81 185.81 0 0 1 15.113-73.618l16.477-38.453c1.407-3.272 2.739-6.637 3.991-10.045a151.42 151.42 0 0 1 59.384 1.2 166.153 166.153 0 0 0 36.1 3.985 166.045 166.045 0 0 0 26.5-2.136c.9 2.341 1.849 4.678 2.84 6.993l16.481 38.461 14.707-6.3-16.48-38.458c-1.753-4.1-3.366-8.264-4.8-12.392a186.553 186.553 0 0 1 -10.141-53.237h7.828a8 8 0 0 0 8-8v-32a24.028 24.028 0 0 0 -24-24h-112a24.028 24.028 0 0 0 -24 24v32a8 8 0 0 0 8 8h7.827a186.56 186.56 0 0 1 -9.817 52.3c-1.547 4.525-3.269 9-5.123 13.315l-16.48 38.46a201.739 201.739 0 0 0 -16.407 79.925v192a40.045 40.045 0 0 0 40 40h128v-16h-128a24.028 24.028 0 0 1 -24-24zm32-416a8.009 8.009 0 0 1 8-8h112a8.009 8.009 0 0 1 8 8v24h-128zm112.157 40a202.266 202.266 0 0 0 8.182 49.53 149.57 149.57 0 0 1 -53.9-2.07 167.409 167.409 0 0 0 -57.45-2.585 202.424 202.424 0 0 0 6.855-44.875z"/><path d="m125.319 165.931h21.908v16.001h-21.908z" transform="matrix(.394 -.919 .919 .394 -77.275 230.674)"/><path d="m104 264v32h16v-32a154 154 0 0 1 12.523-61.009l-14.7-6.3a169.9 169.9 0 0 0 -13.823 67.309z"/><path d="m440 240c0-26.261-52.318-40-104-40s-104 13.739-104 40a19.2 19.2 0 0 0 .224 2.882l23.816 245.918a8 8 0 0 0 7.96 7.2h144a8 8 0 0 0 7.96-7.2l23.816-245.916a19.2 19.2 0 0 0 .224-2.884zm-21.807 65.5-4.043 1.349a126.822 126.822 0 0 1 -76.931 1.167 143.272 143.272 0 0 0 -82.439 0l-.725.217-3.943-44.669c19.745 10.852 52.944 16.436 85.888 16.436s66.146-5.585 85.891-16.436zm-82.193-89.5c56.579 0 87.59 15.651 87.981 23.841l-.09 1c-1.991 8.344-32.848 23.159-87.891 23.159s-85.9-14.815-87.891-23.16l-.09-1c.391-8.189 31.402-23.84 87.981-23.84zm64.762 264h-129.528l-15.663-155.515 3.808-1.142a127.828 127.828 0 0 1 73.242 0 142.685 142.685 0 0 0 83.889-.443z"/><path d="m273.968 342.991h15.999v17.041h-15.999z" transform="matrix(.996 -.088 .088 .996 -29.804 26.144)"/><path d="m279.303 375.843h16v64.314h-16z" transform="matrix(.995 -.099 .099 .995 -38.883 30.363)"/></g></svg>